<svg width="67" height="67" viewBox="0 0 67 67" fill="none" xmlns="http://www.w3.org/2000/svg">
<path d="M30.9505 62.0227C36.4723 62.7646 39.8415 62.0659 45.3373 59.2952C43.8459 58.163 42.9162 57.1314 41.4591 54.7793C41.1577 54.2928 40.5161 54.1513 40.0063 54.4113C38.4044 55.2282 36.5839 55.5065 33.7737 55.3951C33.3918 55.38 33.0307 55.5765 32.8439 55.91L30.2358 60.5672C29.8971 61.172 30.2635 61.9304 30.9505 62.0227Z" fill="#1D253A"/>
<path d="M56.7848 27.1303C54.7111 21.9591 52.4437 19.3709 47.3257 15.9524C47.0749 17.808 46.6349 19.1251 45.3054 21.5516C45.0304 22.0535 45.2232 22.6816 45.7006 22.9973C47.2005 23.9891 48.3392 25.4365 49.6263 27.9371C49.8012 28.2769 50.15 28.4945 50.5322 28.4928L55.87 28.4691C56.5632 28.466 57.0428 27.7737 56.7848 27.1303Z" fill="#1D253A"/>
<circle cx="33.5" cy="14.3571" r="14.3571" fill="#1D253A"/>
<circle cx="52.6428" cy="47.3254" r="14.3571" fill="#1D253A"/>
<circle cx="14.3571" cy="47.3254" r="14.3571" fill="#1D253A"/>
<path d="M13.4582 20.7826C10.0169 25.1641 8.90927 28.4219 8.50793 34.5635C10.2403 33.8529 11.601 33.5753 14.3671 33.5133C14.9393 33.5005 15.3868 33.0194 15.4215 32.4482C15.5304 30.6533 16.2145 28.9435 17.7364 26.5784C17.9433 26.257 17.9572 25.8462 17.7646 25.516L15.0751 20.9053C14.7258 20.3066 13.8864 20.2374 13.4582 20.7826Z" fill="#1D253A"/>
</svg>
