<svg width="25" height="25" viewBox="0 0 25 25" fill="none" xmlns="http://www.w3.org/2000/svg">
<path fill-rule="evenodd" clip-rule="evenodd" d="M12.5 25C16.938 25 20.5357 21.6421 20.5357 17.5C20.5357 13.3579 16.938 10 12.5 10C8.06201 10 4.46429 13.3579 4.46429 17.5C4.46429 21.6421 8.06201 25 12.5 25ZM8.03571 17.5L12.5 13.3333L16.9643 17.5L12.5 21.6667L8.03571 17.5Z" fill="white"/>
<path d="M9.30681 0H1C0.447715 0 0 0.447715 0 1V1.23211C0 1.5093 0.115047 1.77404 0.317682 1.96317L5.56768 6.86317C5.95189 7.22176 6.54811 7.22176 6.93232 6.86317L10.9659 3.09851C11.3328 2.75604 11.389 2.19464 11.0973 1.78622L10.1205 0.418762C9.93283 0.155966 9.62976 0 9.30681 0Z" fill="white"/>
<path d="M15.3332 0.286664L8.88679 6.62C8.24823 7.24736 8.69243 8.33333 9.58761 8.33333H17.463C17.7163 8.33333 17.9601 8.23721 18.1453 8.06439L24.6823 1.96317C24.885 1.77404 25 1.5093 25 1.23211V1C25 0.447715 24.5523 0 24 0H16.034C15.7719 0 15.5202 0.102942 15.3332 0.286664Z" fill="white"/>
</svg>
