<svg width="55" height="62" viewBox="0 0 55 62" fill="none" xmlns="http://www.w3.org/2000/svg">
<path d="M12.5088 48.2456H1.96491C1.41263 48.2456 0.964912 47.7979 0.964912 47.2456V8.79398C0.964912 8.72102 0.972502 8.64987 0.989502 8.57892C1.22596 7.59202 3.17696 0 7.23684 0C11.2967 0 13.2477 7.59202 13.4842 8.57892C13.5012 8.64987 13.5088 8.72102 13.5088 8.79398V47.2456C13.5088 47.7979 13.0611 48.2456 12.5088 48.2456Z" fill="#1D253A"/>
<path d="M13.4737 53.0702H1C0.447715 53.0702 0 53.5179 0 54.0702V59.9285C0 60.4234 0.363952 60.8448 0.853968 60.9143C6.07249 61.6544 9.13203 61.6468 13.6408 60.9275C14.1218 60.8507 14.4737 60.4334 14.4737 59.9463V54.0702C14.4737 53.5179 14.026 53.0702 13.4737 53.0702Z" fill="#1D253A"/>
<path d="M32.772 48.2456H22.2281C21.6758 48.2456 21.2281 47.7979 21.2281 47.2456V8.79398C21.2281 8.72102 21.2357 8.64987 21.2527 8.57892C21.4891 7.59202 23.4401 0 27.5 0C31.5599 0 33.5109 7.59202 33.7474 8.57892C33.7644 8.64988 33.772 8.72102 33.772 8.79398V47.2456C33.772 47.7979 33.3242 48.2456 32.772 48.2456Z" fill="#1D253A"/>
<path d="M33.7369 53.0702H21.2632C20.7109 53.0702 20.2632 53.5179 20.2632 54.0702V59.9285C20.2632 60.4234 20.6271 60.8448 21.1172 60.9143C26.3357 61.6544 29.3952 61.6468 33.904 60.9275C34.385 60.8507 34.7369 60.4334 34.7369 59.9463V54.0702C34.7369 53.5179 34.2892 53.0702 33.7369 53.0702Z" fill="#1D253A"/>
<path d="M53.0351 48.2456H42.4912C41.9389 48.2456 41.4912 47.7979 41.4912 47.2456V8.79398C41.4912 8.72102 41.4988 8.64987 41.5158 8.57892C41.7523 7.59202 43.7033 0 47.7631 0C51.823 0 53.774 7.59202 54.0105 8.57892C54.0275 8.64987 54.0351 8.72102 54.0351 8.79398V47.2456C54.0351 47.7979 53.5874 48.2456 53.0351 48.2456Z" fill="#1D253A"/>
<path d="M54 53.0702H41.5263C40.974 53.0702 40.5263 53.5179 40.5263 54.0702V59.9285C40.5263 60.4234 40.8903 60.8448 41.3803 60.9143C46.5988 61.6544 49.6583 61.6468 54.1671 60.9275C54.6481 60.8507 55 60.4334 55 59.9463V54.0702C55 53.5179 54.5523 53.0702 54 53.0702Z" fill="#1D253A"/>
</svg>
