<svg width="70" height="71" viewBox="0 0 70 71" fill="none" xmlns="http://www.w3.org/2000/svg">
<path d="M46.7647 0H24.0588C23.5065 0 23.0588 0.447715 23.0588 1V21.5723C23.0588 22.1245 22.6111 22.5723 22.0588 22.5723H1C0.447715 22.5723 0 23.02 0 23.5723V47.8382C0 48.3904 0.447715 48.8382 1 48.8382H22.0588C22.6111 48.8382 23.0588 49.2859 23.0588 49.8382V70C23.0588 70.5523 23.5065 71 24.0588 71H46.7647C47.317 71 47.7647 70.5523 47.7647 70V49.8382C47.7647 49.2859 48.2124 48.8382 48.7647 48.8382H69C69.5523 48.8382 70 48.3904 70 47.8382V23.5723C70 23.02 69.5523 22.5723 69 22.5723H48.7647C48.2124 22.5723 47.7647 22.1245 47.7647 21.5723V1C47.7647 0.447715 47.317 0 46.7647 0Z" fill="#1D253A"/>
</svg>
