<svg width="71" height="98" viewBox="0 0 71 98" fill="none" xmlns="http://www.w3.org/2000/svg">
<path d="M60.2446 41.9798C52.9836 50.5343 16.5491 93.4008 12.5 97C8.47894 100.574 25.6172 65.0238 29.3108 57.4159C29.6338 56.7507 29.1375 56 28.398 56H1.77702C0.99739 56 0.517623 55.1474 0.922236 54.481L33.708 0.481022C33.8893 0.182361 34.2133 0 34.5627 0H69.9277C70.7647 0 71.2314 0.966983 70.7105 1.62224L42.1776 37.5185C41.6776 38.1475 42.0861 39.0795 42.8874 39.1381L59.5384 40.3565C60.3541 40.4162 60.7739 41.3562 60.2446 41.9798Z" fill="#269FF4"/>
</svg>
